<svg xmlns="http://www.w3.org/2000/svg" xmlns:xlink="http://www.w3.org/1999/xlink" width="330" zoomAndPan="magnify" viewBox="0 0 247.5 44.999999" height="60" preserveAspectRatio="xMidYMid meet" version="1.0"><defs><g/><clipPath id="id1"><path d="M 73.148438 1.140625 L 247 1.140625 L 247 44.777344 L 73.148438 44.777344 Z M 73.148438 1.140625 " clip-rule="nonzero"/></clipPath><clipPath id="id2"><path d="M 0 1.140625 L 71.480469 1.140625 L 71.480469 44.777344 L 0 44.777344 Z M 0 1.140625 " clip-rule="nonzero"/></clipPath></defs><g clip-path="url(#id1)"><path fill="#ff1616" d="M 73.148438 1.140625 L 247.703125 1.140625 L 247.703125 44.777344 L 73.148438 44.777344 L 73.148438 1.140625 " fill-opacity="1" fill-rule="nonzero"/></g><g clip-path="url(#id2)"><path fill="#004aad" d="M -2.015625 1.140625 L 71.480469 1.140625 L 71.480469 44.773438 L -2.015625 44.773438 L -2.015625 1.140625 " fill-opacity="1" fill-rule="nonzero"/></g><g fill="#ffffff" fill-opacity="1"><g transform="translate(73.949526, 38.192055)"><g><path d="M 48.609375 -4.5625 L 48.609375 -32.671875 L 54.734375 -32.671875 L 54.734375 0.875 Z M 44.296875 0.3125 C 40.460938 -3.4375 36.816406 -5.894531 33.359375 -7.0625 C 29.609375 -1.519531 24.921875 1.25 19.296875 1.25 C 15.515625 1.25 12.175781 0.289062 9.28125 -1.625 C 6.382812 -3.539062 4.207031 -6.289062 2.75 -9.875 C 2 -11.664062 1.625 -12.976562 1.625 -13.8125 L 1.625 -32.671875 L 7.625 -32.671875 L 7.625 -13.25 C 7.625 -10.125 8.6875 -7.5 10.8125 -5.375 C 11.894531 -4.332031 13.097656 -3.539062 14.421875 -3 C 15.753906 -2.457031 17.253906 -2.1875 18.921875 -2.1875 C 21.710938 -2.1875 24.253906 -3.144531 26.546875 -5.0625 C 28.921875 -7.0625 30.109375 -9.414062 30.109375 -12.125 L 30.109375 -27.296875 L 18.484375 -27.296875 C 15.703125 -26.085938 14.3125 -24.234375 14.3125 -21.734375 C 14.3125 -19.984375 14.867188 -18.546875 15.984375 -17.421875 C 17.109375 -16.296875 18.546875 -15.734375 20.296875 -15.734375 C 20.546875 -15.734375 20.890625 -15.816406 21.328125 -15.984375 C 21.765625 -16.148438 22.210938 -16.398438 22.671875 -16.734375 C 21.085938 -17.066406 19.960938 -17.566406 19.296875 -18.234375 C 18.628906 -18.898438 18.296875 -19.753906 18.296875 -20.796875 C 18.296875 -21.878906 18.703125 -22.753906 19.515625 -23.421875 C 20.328125 -24.085938 21.253906 -24.421875 22.296875 -24.421875 C 23.796875 -24.421875 24.960938 -23.796875 25.796875 -22.546875 L 25.734375 -22.546875 C 26.441406 -21.460938 26.796875 -20.234375 26.796875 -18.859375 C 26.796875 -18.023438 26.609375 -17.273438 26.234375 -16.609375 C 25.859375 -15.953125 25.316406 -15.289062 24.609375 -14.625 C 23.898438 -13.957031 23.171875 -13.476562 22.421875 -13.1875 C 21.671875 -12.894531 20.878906 -12.75 20.046875 -12.75 C 13.679688 -12.539062 10.5 -16.179688 10.5 -23.671875 C 10.5 -25.503906 11.25 -27.460938 12.75 -29.546875 C 14.375 -31.628906 16.140625 -32.671875 18.046875 -32.671875 L 35.359375 -32.671875 L 35.359375 -11.375 L 38.421875 -9.0625 L 38.421875 -32.671875 L 44.296875 -32.671875 Z M 44.296875 0.3125 "/></g></g></g><g fill="#ffffff" fill-opacity="1"><g transform="translate(128.550059, 38.192055)"><g><path d="M 18.734375 -14.375 C 15.410156 -14.789062 13.082031 -15.703125 11.75 -17.109375 C 10.25 -18.859375 9.5 -20.898438 9.5 -23.234375 C 9.5 -25.523438 10.101562 -27.585938 11.3125 -29.421875 C 12.726562 -31.585938 14.640625 -32.671875 17.046875 -32.671875 L 33.984375 -32.671875 L 33.984375 -18.171875 C 33.984375 -16.921875 32.734375 -15.59375 30.234375 -14.1875 C 31.734375 -13.101562 32.804688 -12.09375 33.453125 -11.15625 C 34.097656 -10.21875 34.421875 -9.289062 34.421875 -8.375 C 34.421875 -2.582031 28.210938 0.3125 15.796875 0.3125 C 14.679688 0.3125 13.695312 0.28125 12.84375 0.21875 C 11.988281 0.15625 11.3125 0.0820312 10.8125 0 C 8.144531 -0.5 5.769531 -2.332031 3.6875 -5.5 C 1.8125 -8.375 0.875 -11.207031 0.875 -14 L 0.875 -32.546875 L 6.875 -32.546875 L 6.875 -12.25 C 6.875 -10.789062 7.175781 -9.425781 7.78125 -8.15625 C 8.382812 -6.882812 9.226562 -5.75 10.3125 -4.75 C 11.394531 -3.875 12.597656 -3.175781 13.921875 -2.65625 C 15.253906 -2.132812 16.671875 -1.875 18.171875 -1.875 C 20.421875 -1.875 22.566406 -2.5 24.609375 -3.75 C 27.066406 -5.164062 28.296875 -6.894531 28.296875 -8.9375 C 28.296875 -10.269531 27.441406 -11.851562 25.734375 -13.6875 C 27.441406 -14.976562 28.296875 -16.367188 28.296875 -17.859375 L 28.296875 -27.296875 L 21.109375 -27.296875 C 15.492188 -27.335938 12.6875 -25.441406 12.6875 -21.609375 C 12.6875 -20.234375 13.3125 -19.109375 14.5625 -18.234375 C 15.269531 -17.773438 16.160156 -17.378906 17.234375 -17.046875 C 16.691406 -18.210938 16.421875 -19.066406 16.421875 -19.609375 C 16.421875 -21.859375 17.710938 -22.984375 20.296875 -22.984375 C 20.835938 -22.984375 21.328125 -22.859375 21.765625 -22.609375 C 22.203125 -22.359375 22.585938 -22.035156 22.921875 -21.640625 C 23.253906 -21.242188 23.515625 -20.804688 23.703125 -20.328125 C 23.890625 -19.847656 23.984375 -19.359375 23.984375 -18.859375 C 23.984375 -17.398438 23.378906 -16.132812 22.171875 -15.0625 C 21.753906 -14.769531 20.691406 -14.539062 18.984375 -14.375 Z M 18.734375 -14.375 "/></g></g></g><g fill="#ffffff" fill-opacity="1"><g transform="translate(164.783816, 38.192055)"><g><path d="M 6.875 -1.9375 C 6.875 -2.8125 7.1875 -3.5625 7.8125 -4.1875 C 8.4375 -4.8125 9.1875 -5.125 10.0625 -5.125 C 10.9375 -5.125 11.675781 -4.8125 12.28125 -4.1875 C 12.882812 -3.5625 13.1875 -2.8125 13.1875 -1.9375 C 13.1875 -1.0625 12.882812 -0.3125 12.28125 0.3125 C 11.675781 0.9375 10.9375 1.25 10.0625 1.25 C 9.1875 1.25 8.4375 0.9375 7.8125 0.3125 C 7.1875 -0.3125 6.875 -1.0625 6.875 -1.9375 Z M 17.359375 -27.296875 L 10.375 -27.296875 C 11.707031 -25.171875 12.375 -23.253906 12.375 -21.546875 L 12.375 -15.984375 L 6.625 -15.984375 L 6.625 -14.5625 L 17.359375 -7.625 Z M 1.4375 -21.921875 L 7.125 -21.921875 C 6.039062 -24.921875 4.144531 -26.671875 1.4375 -27.171875 L 1.4375 -32.671875 L 23.734375 -32.671875 L 23.734375 0.75 C 21.859375 -0.707031 19.941406 -2.03125 17.984375 -3.21875 C 16.035156 -4.40625 14.09375 -5.476562 12.15625 -6.4375 C 10.21875 -7.394531 8.332031 -8.226562 6.5 -8.9375 C 4.664062 -9.644531 2.976562 -10.226562 1.4375 -10.6875 Z M 1.4375 -21.921875 "/></g></g></g><g fill="#ffffff" fill-opacity="1"><g transform="translate(189.897562, 38.192055)"><g><path d="M 3.625 -4.5625 L 3.625 -32.671875 L 9.75 -32.671875 L 9.75 0.875 Z M 3.625 -4.5625 "/></g></g></g><g fill="#ffffff" fill-opacity="1"><g transform="translate(203.079151, 38.192055)"><g><path d="M 35.359375 -5.3125 L 35.484375 -27.296875 L 19.546875 -27.296875 L 19.546875 -17.546875 C 19.546875 -16.960938 19.859375 -16.429688 20.484375 -15.953125 C 21.109375 -15.484375 21.753906 -15.25 22.421875 -15.25 C 23.171875 -15.25 23.910156 -15.421875 24.640625 -15.765625 C 25.367188 -16.117188 26.066406 -16.691406 26.734375 -17.484375 L 26.734375 -21.109375 L 32.109375 -21.109375 L 32.109375 -10.5 C 32.109375 -10.25 31.984375 -9.820312 31.734375 -9.21875 C 31.484375 -8.613281 31.210938 -8 30.921875 -7.375 C 29.460938 -4.832031 27.628906 -2.820312 25.421875 -1.34375 C 23.210938 0.132812 20.691406 0.875 17.859375 0.875 C 13.160156 0.875 9.207031 -0.894531 6 -4.4375 C 2.875 -7.851562 1.3125 -11.910156 1.3125 -16.609375 L 1.3125 -33.109375 L 7 -33.109375 L 7 -15.375 C 7 -12.25 8.125 -9.25 10.375 -6.375 C 12.789062 -3.5 15.515625 -2.0625 18.546875 -2.0625 C 20.460938 -2.0625 22.234375 -2.601562 23.859375 -3.6875 C 25.773438 -4.894531 26.734375 -6.351562 26.734375 -8.0625 L 26.734375 -13.4375 C 25.566406 -12.476562 24.515625 -11.789062 23.578125 -11.375 C 22.640625 -10.957031 21.816406 -10.75 21.109375 -10.75 C 20.359375 -10.75 19.585938 -10.875 18.796875 -11.125 C 18.003906 -11.375 17.234375 -11.769531 16.484375 -12.3125 C 14.910156 -13.476562 14.125 -14.867188 14.125 -16.484375 L 14.125 -32.671875 L 41.484375 -32.671875 L 41.484375 0.1875 Z M 35.359375 -5.3125 "/></g></g></g><g fill="#ffffff" fill-opacity="1"><g transform="translate(2.455216, 38.972105)"><g><path d="M 25.546875 -3.375 L 25.546875 -27.296875 L 7.375 -27.296875 L 7.375 -23.484375 C 7.539062 -23.484375 7.726562 -23.492188 7.9375 -23.515625 C 8.144531 -23.535156 8.351562 -23.546875 8.5625 -23.546875 C 8.769531 -23.546875 8.96875 -23.554688 9.15625 -23.578125 C 9.34375 -23.597656 9.539062 -23.609375 9.75 -23.609375 C 9.957031 -23.609375 10.132812 -23.617188 10.28125 -23.640625 C 10.425781 -23.660156 10.601562 -23.671875 10.8125 -23.671875 C 11.1875 -23.710938 11.59375 -23.734375 12.03125 -23.734375 C 12.46875 -23.734375 12.8125 -23.734375 13.0625 -23.734375 C 15.757812 -23.734375 17.691406 -23.253906 18.859375 -22.296875 L 18.796875 -22.296875 C 20.210938 -21.171875 20.921875 -19.296875 20.921875 -16.671875 C 20.921875 -14.515625 20.296875 -12.820312 19.046875 -11.59375 C 17.796875 -10.363281 16.113281 -9.75 14 -9.75 L 1.6875 -9.75 L 1.6875 -15.125 C 2.1875 -15.082031 2.789062 -15.0625 3.5 -15.0625 C 4.082031 -15.0625 4.769531 -15.050781 5.5625 -15.03125 C 6.351562 -15.007812 7.226562 -15 8.1875 -15 L 13.75 -15 C 14.207031 -15 14.582031 -15.160156 14.875 -15.484375 C 15.164062 -15.816406 15.3125 -16.210938 15.3125 -16.671875 C 15.3125 -17.753906 14.539062 -18.296875 13 -18.296875 L 1.6875 -18.296875 L 1.6875 -29.796875 C 1.6875 -30.128906 1.8125 -30.472656 2.0625 -30.828125 C 2.3125 -31.179688 2.613281 -31.492188 2.96875 -31.765625 C 3.320312 -32.035156 3.71875 -32.253906 4.15625 -32.421875 C 4.59375 -32.585938 5 -32.671875 5.375 -32.671875 L 31.421875 -32.671875 L 31.421875 0.75 Z M 25.546875 -3.375 "/></g></g></g><g fill="#ffffff" fill-opacity="1"><g transform="translate(35.315495, 38.972105)"><g><path d="M 22.421875 -7 L 24.046875 -7 L 24.046875 -22.671875 C 23.085938 -23.421875 22.140625 -24.179688 21.203125 -24.953125 C 20.265625 -25.722656 19.316406 -26.503906 18.359375 -27.296875 L 10.6875 -27.296875 C 9.144531 -27.296875 7.894531 -26.566406 6.9375 -25.109375 C 5.9375 -23.734375 5.4375 -22.234375 5.4375 -20.609375 C 5.4375 -18.816406 6.0625 -17.484375 7.3125 -16.609375 C 8.476562 -15.785156 10.019531 -15.375 11.9375 -15.375 C 12.351562 -15.375 12.757812 -15.40625 13.15625 -15.46875 C 13.550781 -15.53125 14.039062 -15.660156 14.625 -15.859375 C 12.164062 -17.566406 10.9375 -19.023438 10.9375 -20.234375 C 10.9375 -20.691406 11.0625 -21.148438 11.3125 -21.609375 C 11.5625 -22.066406 11.882812 -22.472656 12.28125 -22.828125 C 12.675781 -23.179688 13.113281 -23.472656 13.59375 -23.703125 C 14.070312 -23.929688 14.539062 -24.046875 15 -24.046875 C 15.613281 -24.046875 16.203125 -23.898438 16.765625 -23.609375 C 17.328125 -23.316406 17.804688 -22.941406 18.203125 -22.484375 C 18.597656 -22.023438 18.910156 -21.484375 19.140625 -20.859375 C 19.367188 -20.234375 19.484375 -19.585938 19.484375 -18.921875 C 19.484375 -17.960938 19.234375 -17.078125 18.734375 -16.265625 C 18.234375 -15.460938 17.523438 -14.769531 16.609375 -14.1875 C 15.867188 -13.769531 15.039062 -13.4375 14.125 -13.1875 C 13.207031 -12.9375 12.269531 -12.8125 11.3125 -12.8125 C 8.601562 -12.8125 6.269531 -13.664062 4.3125 -15.375 C 2.3125 -17.113281 1.3125 -19.359375 1.3125 -22.109375 C 1.3125 -29.148438 4.957031 -32.671875 12.25 -32.671875 C 14.039062 -32.671875 15.410156 -32.660156 16.359375 -32.640625 C 17.316406 -32.617188 18.054688 -32.578125 18.578125 -32.515625 C 19.097656 -32.453125 19.523438 -32.335938 19.859375 -32.171875 C 20.191406 -32.003906 20.648438 -31.773438 21.234375 -31.484375 L 24.046875 -29.421875 L 24.046875 -32.671875 L 29.859375 -32.671875 L 29.859375 0.625 Z M 22.421875 -7 "/></g></g></g></svg>